<svg width="300" height="300" xmlns="http://www.w3.org/2000/svg" clip-rule="evenodd">
 <g>
  <title>background</title>
  <rect x="-1" y="-1" width="120.110257" height="120.110257" id="canvas_background" fill="none"/>
 </g>

 <g>
  <title>Layer 1</title>
  <g transform="matrix(0.6429210943551684,0,0,0.641218563843255,-74.65060417238422,-85.28396632056361) " id="svg_1">
   <circle cx="350.034075" cy="366.932556" r="230.630997" fill="rgb(255,145,77)" id="svg_2"/>
  </g>
  <g transform="matrix(2.6176513580726697,0,0,2.526661123190956,-852.0098692922849,-812.2743436862136) " id="svg_3">
   <ellipse stroke-width="0" cx="382.789628" cy="380.848192" rx="53.572" ry="55.677" fill="white" id="svg_4"/>
  </g>
  <g transform="matrix(2.2858862778690305,0,0,2.2858862778690305,-705.1690439997778,-698.4505803667864) " id="svg_5">
   <ellipse cx="374.108304" cy="371.169193" rx="54.198" ry="54.198" fill="rgb(255,145,77)" id="svg_6"/>
  </g>
  <g transform="matrix(0.416667,0,0,0.416667,0,0) " id="svg_7">
   <path d="m298.579364,604.865003c7.5,-3.1 36.8,-25.7 65.1,-50c39.8,-34.2 63.3,-56.1 101.1,-94c31,-31 42.5,-44.3 44.4,-51.2c6.7,-24.2 -66.6,-290.1 -81.5,-295.8c-9.1,-3.5 -90.4,64.1 -162.4,134.9c-42.2,41.5 -53.9,55.3 -54.8,64.3c-0.6,7 1.8,24.5 6.3,45.2c17.9,82.2 50.5,195.8 67,233.1c6.9,15.8 7.7,16.5 14.8,13.5z" fill-rule="nonzero" fill="white" id="svg_8"/>
  </g>
 </g>
</svg>